<svg width="416" height="44" viewBox="0 0 416 44" fill="none" xmlns="http://www.w3.org/2000/svg">
<path d="M112.602 27.8093L101.448 1.55554H94.3535L112.602 42.8331L130.054 1.85905L130.168 1.55554H123.377L112.602 27.8093Z" fill="white"/>
<path d="M146.027 24.3189H162.872V18.4384H146.027V7.54988H165.034V1.55554H139.35V41.619H165.831V35.6247H146.027V24.3189Z" fill="white"/>
<path d="M185.18 1.55554H178.465V41.619H202.632V35.6247H185.18V1.55554Z" fill="white"/>
<path d="M220.994 24.3189H237.839V18.4384H220.994V7.54988H240.001V1.55554H214.316V41.619H240.798V35.6247H220.994V24.3189Z" fill="white"/>
<path d="M279.306 27.2401L254.304 1.02432L253.432 0.151733V0.986394V41.6189H259.73V15.9343L284.731 42.1121L285.604 43.0227V42.188V1.55548H279.306V27.2401Z" fill="white"/>
<path d="M342.777 7.54988H354.538V41.619H361.254V7.54988H373.015V1.55554H342.777V7.54988Z" fill="white"/>
<path d="M409.285 1.55554V19.0833H390.771V1.55554H384.094V41.619H390.771V25.0777H409.285V41.619H416V1.55554H409.285Z" fill="white"/>
<path d="M318.953 26.671H328.704C328.4 29.2508 327.11 31.4892 324.948 33.3482C322.671 35.2452 320.091 36.2316 317.246 36.2316C313.907 36.2316 310.758 34.9417 307.875 32.3618C304.802 29.5923 303.246 26.026 303.246 21.7389C303.246 17.6036 304.65 14.1132 307.382 11.3437C310.113 8.53618 313.566 7.13245 317.625 7.13245C322.14 7.13245 326.048 9.25701 329.197 13.4682L329.348 13.6579L333.901 9.29495L333.749 9.14321C331.283 6.33573 328.741 4.28703 326.2 2.9971C323.544 1.74512 320.623 1.10016 317.512 1.10016C311.783 1.10016 306.851 3.11093 302.829 7.13245C298.846 11.116 296.797 16.0481 296.797 21.7389C296.797 27.3539 298.808 32.2101 302.715 36.1936C306.661 40.1772 311.441 42.188 316.942 42.188C322.595 42.188 327.338 40.1014 330.98 35.966C332.611 34.107 333.749 32.1342 334.432 30.0096C335.115 27.7333 335.495 25.0776 335.495 22.1183V20.6008H318.839V26.671H318.953Z" fill="white"/>
<path d="M53.1903 1.55551L41.3913 26.5193L30.2752 0.720848L29.9338 0L18.5901 26.4814L7.13251 1.66932L7.09457 1.55551H0L17.4519 41.9984L17.7933 42.833L18.0969 42.1501L29.9338 14.8721L41.8466 42.9089L42.1501 42.1501L59.8676 1.55551H53.1903Z" fill="white"/>
<path d="M76.675 0.113831L58.8438 41.619H65.6348L68.7079 34.2209H84.4904L87.5635 41.619H94.6581L76.675 0.113831ZM82.0624 28.3024H71.2118L76.675 15.2514L82.0624 28.3024Z" fill="white"/>
</svg>
